<svg width="16" height="16" viewBox="0 0 16 16" fill="none" xmlns="http://www.w3.org/2000/svg">
<path d="M5.87329 1.33325L3.45996 3.75325" stroke="#1C1C1C" stroke-miterlimit="10" stroke-linecap="round" stroke-linejoin="round"/>
<path d="M10.1267 1.33325L12.54 3.75325" stroke="#1C1C1C" stroke-miterlimit="10" stroke-linecap="round" stroke-linejoin="round"/>
<path d="M1.33337 5.23324C1.33337 3.9999 1.99337 3.8999 2.81337 3.8999H13.1867C14.0067 3.8999 14.6667 3.9999 14.6667 5.23324C14.6667 6.66657 14.0067 6.56657 13.1867 6.56657H2.81337C1.99337 6.56657 1.33337 6.66657 1.33337 5.23324Z" stroke="#1C1C1C"/>
<path d="M6.50671 9.33325V11.6999" stroke="#1C1C1C" stroke-linecap="round"/>
<path d="M9.57336 9.33325V11.6999" stroke="#1C1C1C" stroke-linecap="round"/>
<path d="M2.33337 6.66675L3.27337 12.4267C3.48671 13.7201 4.00004 14.6667 5.90671 14.6667H9.92671C12 14.6667 12.3067 13.7601 12.5467 12.5067L13.6667 6.66675" stroke="#1C1C1C" stroke-linecap="round"/>
</svg>
